<svg xmlns="http://www.w3.org/2000/svg" xmlns:xlink="http://www.w3.org/1999/xlink" width="30" height="25" viewBox="0 0 30 25"><defs><path id="ntyfa" d="M1543.33 155.271h-22.019c-2.026 0-3.67-1.629-3.67-3.638v-16.372c0-2.01 1.644-3.638 3.67-3.638h22.02c2.026 0 3.67 1.628 3.67 3.638v16.372c0 2.01-1.644 3.638-3.67 3.638zm-21.101-21.83l10.092 8.698 10.092-8.697zm22.936 1.82c0-.523-.226-.992-.583-1.324l-12.261 10.42-12.261-10.42c-.357.332-.583.8-.583 1.324v16.372c0 1.004.821 1.82 1.834 1.82h22.02a1.827 1.827 0 0 0 1.834-1.82z"/></defs><g><g transform="translate(-1517 -131)"><use fill="#6d6e71" xlink:href="#ntyfa"/></g></g></svg>