<svg xmlns="http://www.w3.org/2000/svg" xmlns:xlink="http://www.w3.org/1999/xlink" width="32" height="29" viewBox="0 0 32 29"><defs><path id="aqima" d="M1302.196 1033.505l-11.053 10.925a3.048 3.048 0 0 1-4.278 0l-11.053-10.925a9.394 9.394 0 0 1 0-13.393c3.63-3.59 9.432-3.665 13.192-.288 3.76-3.377 9.562-3.302 13.192.288a9.394 9.394 0 0 1 0 13.393zm-1.427-11.984c-2.843-2.811-7.416-2.91-10.41-.222l-1.355 1.218-1.356-1.218c-2.993-2.688-7.565-2.59-10.41.222a7.423 7.423 0 0 0 0 10.574l11.053 10.925c.392.39 1.033.39 1.425 0l11.053-10.925a7.422 7.422 0 0 0 0-10.574zm-18.014 1.323a.5.5 0 0 1-.5.499 3.247 3.247 0 0 0-3.25 3.244v.001a.5.5 0 0 1-1 0 4.246 4.246 0 0 1 4.246-4.242l.004-.001a.5.5 0 0 1 .5.499z"/></defs><g><g transform="translate(-1273 -1017)"><use fill="#cc9800" xlink:href="#aqima"/></g></g></svg>