<svg xmlns="http://www.w3.org/2000/svg" xmlns:xlink="http://www.w3.org/1999/xlink" width="25" height="25" viewBox="0 0 25 25"><defs><path id="b6fca" d="M1369.47 269.113a1.667 1.667 0 1 1-2.355 2.356l-.002.001-3.362-3.362a5.807 5.807 0 0 0 1.247-3.466zM1355.833 247c5.983 0 10.834 4.85 10.834 10.833 0 5.983-4.85 10.834-10.834 10.834-5.983 0-10.833-4.85-10.833-10.834 0-5.983 4.85-10.833 10.833-10.833zm-7.5 10.833a7.5 7.5 0 1 0 15.001 0 7.5 7.5 0 0 0-15 0z"/></defs><g><g transform="translate(-1345 -247)"><use fill="#6d6e71" xlink:href="#b6fca"/></g></g></svg>